# xmcd CD database file
# Copyright (C) 1993-1998 Ti Kan
# 
# Track frame offsets:
#     180
#     15661
#     34353
#     49516
#     68077
#     90283
#     105218
#     131486
#     143548
#     160722
#     181872
#     196843
#     215240
#     238079
#     257464
#     273722
# 
# Disc length: 3916 seconds
# 
# Revision: 1
# Processed by: cddbd v1.4b41PL1 Copyright (c) Steve Scherf et al.
# Submitted via: DiscPlay 4.0.4
# 
DISCID=d10f4a10
DTITLE=Bryan Adams - The Music Of Bryan Adams, 16 instrumental hits
DYEAR=1900
DGENRE=
TTITLE0=Straight From The Heart
TTITLE1=(Everything I Do) I Do It For You
TTITLE2=Summer Of '69
TTITLE3=Run To You
TTITLE4=Is Your Mama Gonna Miss Ya
TTITLE5=It's Only Love
TTITLE6=Please Forgive Me
TTITLE7=Kids Wanna Rock
TTITLE8=Heaven
TTITLE9=Cuts Like A Knife
TTITLE10=This Time
TTITLE11=Hey Honey, I'm Packin' You In
TTITLE12=Heat Of The Night
TTITLE13=Do I Have To Say The Words
TTITLE14=Somebody
TTITLE15=Can't Stop This Thing We Started
EXTD=
EXTT0=
EXTT1=
EXTT2=
EXTT3=
EXTT4=
EXTT5=
EXTT6=
EXTT7=
EXTT8=
EXTT9=
EXTT10=
EXTT11=
EXTT12=
EXTT13=
EXTT14=
EXTT15=
PLAYORDER=
